# xmcd
#
# Track frame offsets: 
#        150
#        19535
#        36317
#        59807
#        77925
#        99560
#        122480
#        132342
#        154522
#        175675
#
# Disc length: 2702 seconds
#
# Revision: 2
# Processed by: cddbd v1.5.2PL0 Copyright (c) Steve Scherf et al.
# Submitted via: ExactAudioCopyFreeDBPlugin 1.0
#
DISCID=7d0a8c0a
DTITLE=浜田省吾 - J.BOY [Limited Edition] Disk1
DYEAR=1999
DGENRE=J-POP
TTITLE0=A NEW STYLE WAR
TTITLE1=BIG BOY BLUES
TTITLE2=AMERICA
TTITLE3=想い出のファイヤー・ストーム
TTITLE4=悲しみの岸辺
TTITLE5=勝利への道
TTITLE6=晩夏の鐘
TTITLE7=A RICH MAN’S GIRL
TTITLE8=LONELY-愛という約束事
TTITLE9=もうひとつの土曜日
EXTD=YEAR: 1999
EXTT0=
EXTT1=
EXTT2=
EXTT3=
EXTT4=
EXTT5=
EXTT6=
EXTT7=
EXTT8=
EXTT9=
PLAYORDER=
